<?xml version="1.0" standalone="no"?>
<!DOCTYPE svg PUBLIC "-//W3C//DTD SVG 20010904//EN"
 "http://www.w3.org/TR/2001/REC-SVG-20010904/DTD/svg10.dtd">
<svg version="1.0" xmlns="http://www.w3.org/2000/svg"
 width="183.000000pt" height="275.000000pt" viewBox="0 0 183.000000 275.000000"
 preserveAspectRatio="xMidYMid meet">
<metadata>
Created by potrace 1.10, written by Peter Selinger 2001-2011
</metadata>
<g transform="translate(0.000000,275.000000) scale(0.100000,-0.100000)"
fill="#000000" stroke="none">
<path d="M795 2685 c-16 -7 -41 -23 -55 -35 -14 -12 -19 -19 -12 -15 6 3 12 1
12 -4 0 -6 -7 -11 -15 -11 -18 0 -19 -14 -4 -41 5 -11 15 -17 22 -13 7 4 -7
-11 -29 -33 -38 -36 -46 -39 -95 -38 -30 1 -65 -2 -79 -6 -49 -14 -96 -20 -80
-9 12 8 10 10 -10 8 -33 -1 -53 4 -65 19 -5 7 -22 15 -36 18 -21 5 -30 1 -43
-16 -9 -13 -16 -31 -16 -40 0 -9 -7 -19 -15 -23 -8 -3 -15 -10 -15 -16 0 -6 6
-8 13 -4 9 6 8 3 -1 -8 -8 -9 -20 -14 -27 -12 -8 3 -20 2 -27 -3 -20 -12 -59
-11 -54 2 2 7 -7 11 -24 10 -20 -1 -27 2 -23 12 7 17 -56 17 -77 0 -17 -14
-26 -42 -10 -32 5 3 13 -2 16 -12 19 -59 28 -74 41 -69 8 3 11 1 8 -4 -3 -6
-2 -10 4 -10 5 0 8 -8 7 -17 -3 -21 22 -52 53 -64 13 -5 21 -12 18 -15 -2 -3
10 -20 28 -37 17 -18 39 -45 46 -62 10 -20 21 -29 33 -27 11 2 15 -1 11 -7 -3
-7 2 -11 14 -11 12 0 21 -3 21 -7 0 -5 20 -8 45 -9 25 0 45 4 45 9 0 5 6 5 13
-1 14 -12 55 -11 75 2 7 4 12 3 12 -2 0 -6 12 -9 28 -7 171 21 223 23 257 10
16 -5 17 -5 5 4 -17 12 -6 14 28 4 16 -4 20 -8 11 -13 -7 -5 -1 -7 14 -7 16 1
27 8 28 17 0 10 2 11 6 3 2 -7 9 -13 14 -13 6 0 7 5 4 10 -3 6 -2 10 3 10 6 0
12 -7 16 -15 3 -8 10 -15 16 -15 6 0 8 5 5 10 -4 7 2 9 17 6 77 -16 80 -17 72
-5 -5 8 -3 9 7 3 18 -11 109 -23 104 -13 -3 4 6 6 19 5 13 0 22 -5 19 -10 -3
-4 4 -5 15 -2 11 4 30 1 42 -6 17 -11 22 -11 30 2 6 10 10 11 10 3 0 -33 103
-6 138 36 7 9 12 10 12 3 0 -7 9 -3 20 8 12 12 18 25 15 30 -4 6 -1 10 4 10 6
0 10 5 8 12 -1 7 5 13 13 13 8 0 14 6 13 12 -2 7 6 15 17 18 11 4 18 10 15 15
-3 4 5 6 17 2 14 -3 19 -2 14 6 -4 7 -3 12 3 12 6 0 18 12 27 26 15 22 15 27
3 34 -11 7 -9 10 6 16 29 11 54 39 59 68 6 35 -8 33 -36 -4 -12 -16 -29 -30
-37 -30 -12 0 -13 -2 -3 -8 9 -7 6 -16 -15 -37 -15 -16 -23 -25 -17 -22 7 4
14 -2 17 -13 3 -11 1 -18 -3 -15 -5 3 -20 1 -35 -5 -20 -7 -31 -7 -41 1 -11 9
-14 8 -14 -5 0 -10 5 -14 10 -11 20 12 10 -14 -12 -32 -28 -23 -68 -69 -51
-60 6 4 15 3 18 -3 4 -6 3 -9 -2 -8 -4 1 -18 -3 -29 -10 -12 -6 -24 -9 -28 -7
-3 3 -4 2 -1 -1 10 -15 -27 -34 -65 -34 -36 0 -41 3 -35 18 5 14 4 15 -6 5 -7
-7 -28 -13 -47 -13 -24 0 -31 4 -26 13 5 9 4 9 -6 0 -7 -6 -22 -9 -34 -5 -11
4 -32 7 -46 7 -14 -1 -28 6 -32 15 -5 12 -7 12 -7 -3 -1 -13 -7 -16 -24 -12
-12 3 -67 8 -122 9 -55 2 -102 5 -105 6 -3 1 -9 1 -15 0 -5 -1 -75 -4 -155 -6
-175 -4 -296 -11 -321 -19 -11 -4 -19 -2 -19 4 0 5 8 12 18 14 11 3 9 5 -8 6
-14 1 -32 6 -40 11 -13 9 -12 12 4 25 11 8 15 15 9 15 -6 0 -16 -7 -23 -15
-10 -13 -15 -13 -21 -3 -9 14 9 41 21 33 5 -3 11 -1 14 4 3 5 -1 12 -9 15 -9
3 -18 -1 -22 -10 -4 -12 -12 -9 -40 18 -19 18 -40 44 -45 58 -6 14 -12 20 -15
13 -6 -16 -33 -5 -33 14 0 8 -9 26 -20 40 -13 16 -18 34 -15 47 4 13 3 16 -2
9 -6 -9 -17 -2 -37 24 -28 35 -28 35 -5 28 13 -4 50 -19 82 -34 57 -27 58 -27
87 -9 17 10 36 18 43 18 17 0 42 31 43 53 3 59 5 71 12 61 4 -6 30 -23 59 -38
45 -22 58 -25 100 -17 58 10 53 10 180 17 94 6 101 8 91 24 -16 24 -5 45 31
61 35 16 40 29 11 29 -11 0 -20 -5 -20 -11 0 -8 -5 -8 -15 1 -32 27 -8 78 27
59 27 -14 36 -2 12 16 -17 13 -14 14 42 15 66 0 80 -6 63 -27 -14 -16 11 -19
27 -3 14 14 37 -13 32 -37 -3 -14 -12 -17 -36 -15 -18 1 -32 -1 -32 -4 0 -9
27 -33 32 -28 3 2 13 -5 23 -16 15 -17 16 -24 7 -46 -15 -31 -15 -47 -2 -39 6
4 8 11 5 16 -4 5 0 9 8 9 39 0 264 -33 278 -41 11 -6 21 -4 28 5 6 7 31 19 56
26 24 7 52 21 62 33 18 20 18 20 -22 13 -22 -4 -51 -14 -64 -23 -17 -11 -21
-12 -15 -2 6 12 5 12 -9 0 -11 -9 -28 -11 -53 -6 -26 4 -34 3 -29 -5 6 -9 2
-9 -13 -1 -11 6 -31 11 -44 11 -13 0 -30 6 -36 12 -10 10 -15 10 -22 -2 -7
-11 -10 -12 -10 -2 0 8 -6 12 -12 9 -7 -2 -21 0 -32 5 -13 7 -16 7 -12 -1 5
-7 1 -8 -9 -5 -9 4 -14 12 -11 20 3 7 0 15 -7 17 -9 3 -9 11 0 36 6 17 7 29 2
25 -5 -3 -9 3 -9 14 0 10 -3 22 -7 26 -5 4 -8 13 -8 19 0 7 -11 11 -23 10 -13
-2 -21 1 -17 6 5 9 -10 13 -82 26 -16 2 -41 -2 -58 -10z"/>
<path d="M836 2548 c4 -6 2 -13 -4 -17 -14 -8 -24 -61 -11 -61 9 0 13 15 10
34 -1 4 8 16 19 26 20 18 20 18 0 23 -12 3 -18 1 -14 -5z"/>
<path d="M861 2491 c-9 -6 -6 -10 9 -14 15 -4 21 -11 17 -21 -8 -19 1 -46 15
-46 6 0 5 7 -2 15 -17 21 -7 29 19 15 14 -7 21 -7 21 0 0 5 -6 10 -14 10 -8 0
-23 11 -34 24 -11 15 -23 21 -31 17z"/>
<path d="M1406 2468 c3 -13 8 -40 11 -60 3 -21 9 -35 14 -32 5 3 28 -6 52 -20
25 -15 47 -22 53 -17 5 5 33 16 62 26 29 9 51 20 48 23 -3 3 0 12 6 21 7 9 2
7 -11 -4 -14 -11 -21 -14 -17 -7 4 7 2 12 -7 12 -8 0 -17 -6 -20 -14 -3 -8
-23 -15 -45 -18 -24 -2 -38 1 -35 6 4 5 -1 7 -10 3 -10 -3 -17 -2 -17 2 0 5
-10 7 -22 4 -19 -4 -20 -3 -8 6 13 10 13 11 0 12 -8 1 -19 1 -25 0 -5 0 -3 4
6 11 15 10 15 13 0 40 -19 34 -42 38 -35 6z"/>
<path d="M840 2460 c0 -5 -6 -9 -12 -7 -7 1 -11 -5 -9 -13 2 -8 4 -20 4 -27 0
-8 6 -9 19 -2 22 12 24 21 3 13 -8 -4 -15 -2 -15 4 0 5 7 12 15 16 17 6 21 26
5 26 -5 0 -10 -4 -10 -10z"/>
<path d="M724 2442 c3 -6 -10 -10 -32 -10 -70 -2 -180 -11 -206 -18 -43 -10
-24 -29 26 -25 36 2 51 -3 74 -22 23 -20 28 -33 30 -74 0 -28 5 -56 9 -62 11
-19 -53 -6 -76 15 -11 10 -17 24 -14 31 3 9 0 11 -6 7 -7 -4 -10 -1 -7 7 3 8
13 13 23 11 14 -3 15 -1 4 11 -12 13 -16 11 -31 -12 -10 -14 -18 -20 -18 -13
0 6 -9 12 -20 12 -28 0 -25 -19 5 -30 14 -5 25 -17 25 -25 0 -9 4 -14 9 -11 4
3 17 -2 27 -10 16 -14 17 -15 2 -10 -15 4 -16 3 -6 -14 7 -10 9 -23 5 -27 -5
-4 -12 -1 -17 7 -7 10 -10 11 -10 3 0 -7 -7 -13 -15 -13 -8 0 -15 -5 -15 -11
0 -6 -7 -9 -15 -6 -18 8 -27 -6 -19 -28 5 -13 9 -14 15 -4 6 11 11 10 26 -3
15 -14 20 -14 31 -2 11 12 9 13 -9 11 -12 -1 -24 4 -27 12 -3 9 1 11 17 6 14
-4 30 0 47 14 15 12 22 21 15 21 -6 0 -11 7 -11 15 0 12 9 14 43 9 74 -10 97
-10 97 -2 0 4 9 8 20 8 10 0 35 16 54 36 22 23 40 33 48 28 7 -4 10 -4 6 1 -4
4 -2 15 5 24 10 14 10 14 -3 5 -8 -6 -33 -9 -55 -6 -31 4 -36 6 -20 12 16 6
12 8 -17 12 -21 2 -38 0 -38 -4 0 -4 7 -8 16 -8 10 0 14 -7 12 -22 -2 -12 3
-23 12 -25 13 -4 13 -3 0 6 -12 8 -12 11 3 17 25 9 31 0 17 -26 -8 -14 -18
-20 -30 -17 -13 3 -17 0 -13 -9 3 -9 -2 -14 -16 -14 -13 0 -21 6 -21 18 0 9
-12 37 -26 62 -43 76 -9 119 84 105 34 -5 42 -3 42 9 0 9 5 16 11 16 5 0 7 -5
3 -12 -4 -7 -3 -8 5 -4 6 4 9 12 6 17 -9 14 -45 11 -41 -3 1 -7 1 -10 -2 -5
-2 4 -13 12 -24 18 -12 6 -18 7 -14 1z"/>
<path d="M973 2436 c-36 -17 -28 -36 15 -36 49 0 86 -20 90 -49 4 -25 -25 -64
-41 -54 -5 3 -7 2 -4 -4 7 -12 -11 -83 -21 -83 -4 1 -20 11 -36 24 -19 16 -27
30 -23 40 4 10 1 19 -8 22 -8 4 -15 10 -15 16 0 5 4 7 9 3 16 -9 20 9 5 23
-10 9 -14 10 -14 1 0 -6 -8 -18 -17 -26 -10 -8 -12 -11 -4 -7 9 4 12 2 9 -7
-3 -8 -12 -13 -21 -13 -9 1 -13 -4 -10 -12 2 -7 10 -11 17 -8 16 6 41 -40 31
-57 -5 -8 -4 -10 3 -5 7 4 12 1 12 -6 0 -10 3 -9 10 2 7 12 12 12 29 -4 22
-20 28 -46 11 -46 -5 0 -9 -3 -9 -7 4 -25 -2 -43 -13 -37 -7 5 -8 3 -4 -5 6
-9 13 -8 27 5 15 13 19 14 19 3 0 -12 2 -12 9 0 8 12 12 12 26 -3 10 -9 20
-15 22 -12 8 8 -6 38 -14 33 -5 -3 -19 -1 -32 4 -19 8 -21 12 -11 24 17 20 31
19 24 -2 -5 -15 -4 -15 4 -3 12 17 5 33 -12 27 -6 -3 -17 2 -24 9 -10 11 -6
13 27 8 21 -3 58 0 82 6 59 16 117 70 75 70 -8 0 -17 -9 -21 -19 -5 -18 -51
-41 -82 -41 -11 0 -11 4 -3 20 6 11 8 32 6 46 -14 75 83 132 157 93 21 -12 22
-11 4 8 -20 23 -54 33 -137 39 -30 3 -66 7 -80 9 -14 2 -31 4 -38 4 -7 1 -10
6 -7 11 3 6 5 9 3 9 -2 -1 -13 -6 -25 -13z"/>
<path d="M863 2395 c0 -8 4 -12 8 -9 4 2 14 -3 22 -11 21 -21 32 -19 34 5 1
11 -3 20 -8 20 -6 0 -7 -4 -4 -10 9 -15 -7 -12 -31 4 -17 13 -21 13 -21 1z"/>
<path d="M1292 2390 c-14 -23 -16 -33 -3 -26 5 3 11 -1 15 -9 3 -8 13 -15 21
-15 10 0 14 -5 10 -12 -4 -7 2 -2 13 11 11 14 22 20 26 13 3 -6 0 -13 -6 -15
-7 -3 2 -4 20 -2 24 3 35 -1 42 -16 10 -18 6 -23 -13 -20 -4 0 -6 -2 -6 -6 4
-23 -3 -30 -26 -25 -16 3 -25 0 -25 -8 0 -10 -3 -10 -15 0 -9 7 -15 8 -15 2 0
-15 32 -24 44 -12 5 5 15 10 20 10 6 0 -5 -13 -24 -29 -19 -16 -39 -26 -44
-23 -5 3 -7 -2 -3 -11 4 -12 0 -18 -16 -21 -36 -7 -64 -3 -64 10 0 8 9 9 31 3
40 -12 41 -12 27 5 -9 11 -9 20 -2 35 17 30 13 36 -9 16 -11 -10 -20 -24 -20
-32 0 -7 -4 -13 -10 -13 -17 0 -11 17 17 52 16 20 19 26 7 16 -23 -20 -39 -24
-28 -6 4 6 3 8 -3 5 -6 -4 -13 0 -17 8 -3 8 -1 15 5 15 6 0 7 5 4 10 -3 6 -10
10 -16 10 -14 0 -11 -37 6 -53 8 -8 12 -17 9 -19 -2 -3 -7 -22 -9 -42 -4 -33
-3 -37 14 -31 10 3 23 -1 30 -9 12 -15 45 -11 36 4 -2 4 9 7 26 8 26 1 30 -2
26 -19 -4 -17 -3 -18 9 -8 9 7 14 8 14 1 0 -6 -5 -14 -10 -17 -6 -4 -7 -11 -4
-17 4 -6 12 2 19 18 10 24 9 30 -4 36 -11 5 -8 7 9 5 18 -1 24 -7 22 -21 -3
-18 -3 -18 14 -2 9 10 18 31 20 47 l4 29 -27 -17 c-14 -9 -34 -18 -44 -20 -16
-2 -16 0 -2 27 8 17 19 28 24 24 5 -3 7 -10 4 -15 -4 -5 -1 -9 4 -9 6 0 11 6
11 14 0 17 47 49 55 37 3 -5 0 -12 -5 -14 -6 -3 -5 -4 2 -3 7 2 20 0 28 -5 12
-5 16 -2 17 13 2 16 -1 17 -13 8 -11 -10 -14 -9 -14 7 0 20 -23 25 -48 9 -7
-4 -12 -1 -12 8 0 14 12 20 33 17 4 0 7 6 7 15 0 8 -4 13 -10 9 -5 -3 -27 5
-49 19 -21 14 -42 22 -45 19 -3 -4 -6 -3 -6 2 0 4 8 14 18 21 14 12 15 13 1 8
-10 -3 -20 0 -24 6 -5 8 -12 5 -22 -9 -8 -12 -11 -26 -8 -31 9 -15 -11 -12
-24 4 -6 7 -9 21 -5 30 8 22 1 20 -14 -4z"/>
<path d="M425 2390 c-4 -6 -10 -8 -15 -5 -14 9 -40 -6 -51 -29 -9 -18 -8 -19
3 -4 14 16 30 22 56 19 15 -1 16 -28 0 -33 -7 -3 -8 -9 -2 -20 11 -20 54 -6
54 17 0 9 -4 14 -9 10 -12 -7 -34 32 -26 45 3 6 4 10 1 10 -3 0 -8 -5 -11 -10z"/>
<path d="M304 2381 c5 -7 -22 -25 -32 -21 -1 0 -10 -6 -18 -15 -11 -11 -12
-19 -5 -32 6 -10 11 -12 11 -5 0 6 5 12 11 12 5 0 8 -4 5 -8 -3 -5 6 -21 20
-37 30 -35 23 -46 -11 -15 -14 13 -26 22 -28 19 -2 -2 -11 -16 -20 -31 -16
-26 -16 -28 4 -39 15 -8 19 -8 15 0 -11 17 10 13 24 -4 7 -8 20 -14 29 -14 12
1 11 2 -3 6 -15 4 -16 7 -5 14 11 6 8 9 -8 9 -14 0 -23 6 -23 15 0 18 0 18 37
0 17 -9 34 -22 37 -31 3 -8 2 -12 -4 -9 -6 3 -10 1 -10 -5 0 -13 68 -9 90 5 8
5 18 10 22 10 12 0 22 15 10 15 -7 0 -12 6 -12 14 0 9 9 14 20 13 14 -1 19 -6
15 -17 -5 -11 -3 -12 6 -3 17 17 0 36 -27 30 -13 -2 -25 1 -27 6 -4 12 -27 0
-27 -14 0 -6 4 -8 9 -4 6 3 9 -4 8 -15 -2 -27 -27 -34 -43 -13 -7 10 -14 21
-14 26 0 4 -7 7 -15 7 -21 0 -19 13 6 29 19 11 21 11 16 -1 -3 -9 1 -15 9 -15
16 0 17 6 5 26 -7 11 -12 11 -32 -2 -21 -15 -24 -15 -46 9 -28 30 -26 48 6 52
15 3 21 8 17 19 -3 8 -6 17 -6 19 0 2 -5 4 -11 4 -5 0 -8 -4 -5 -9z"/>
<path d="M683 2370 c-3 -11 -9 -18 -13 -15 -16 10 -18 -24 -2 -37 15 -12 16
-11 3 5 -11 14 -11 17 0 18 8 1 18 1 22 0 5 -1 5 8 2 20 -5 15 -4 19 4 15 6
-4 11 -2 11 3 0 19 -22 12 -27 -9z"/>
<path d="M963 2368 c-1 -14 1 -18 8 -11 11 11 56 5 65 -8 8 -14 24 -11 18 4
-2 7 -16 14 -31 15 -15 1 -29 5 -32 10 -12 15 -27 10 -28 -10z"/>
<path d="M826 2352 c-18 -21 -14 -23 48 -22 34 1 44 7 30 19 -21 19 -61 21
-78 3z"/>
<path d="M1182 2355 c-7 -8 -10 -15 -6 -15 4 0 -5 -13 -21 -30 -15 -16 -31
-27 -35 -25 -4 2 -7 -2 -7 -10 0 -8 4 -15 9 -15 4 0 8 5 8 12 0 9 3 9 12 0 22
-22 27 -16 44 53 1 6 5 18 9 28 9 21 4 21 -13 2z"/>
<path d="M998 2343 c-10 -2 -18 -12 -19 -21 0 -9 -2 -25 -4 -34 -4 -23 13 -34
28 -18 9 9 9 11 1 7 -7 -4 -14 0 -18 8 -3 10 1 15 12 15 15 0 15 2 2 10 -8 5
-10 10 -4 10 7 0 14 7 18 15 3 8 4 14 3 14 -1 -1 -10 -3 -19 -6z"/>
<path d="M1207 2329 c-4 -15 -2 -17 13 -9 26 14 40 12 40 -5 0 -10 10 -15 31
-15 38 0 35 24 -4 28 -15 2 -25 7 -23 11 3 4 -8 8 -24 8 -19 0 -30 -6 -33 -18z"/>
<path d="M1567 2332 c-12 -13 -26 -17 -49 -14 -18 3 -30 1 -26 -3 4 -4 18 -9
30 -10 37 -4 38 -4 38 -16 0 -6 -7 -9 -14 -6 -10 4 -13 1 -9 -8 6 -18 19 -11
34 17 8 15 8 19 0 14 -18 -12 -12 6 6 20 10 7 15 15 12 18 -3 3 -13 -2 -22
-12z"/>
<path d="M180 2321 c0 -16 -4 -21 -15 -17 -8 3 -15 1 -15 -4 0 -6 9 -10 20
-10 11 0 23 -7 26 -15 5 -11 11 -12 25 -4 10 5 19 15 18 22 0 8 -2 9 -5 1 -6
-13 -44 -7 -44 7 0 9 12 12 40 10 10 0 11 1 2 5 -6 3 -10 10 -6 15 3 5 1 9 -5
9 -5 0 -12 -6 -14 -12 -4 -10 -8 -9 -16 2 -9 12 -11 11 -11 -9z"/>
<path d="M563 2276 c-9 -11 -7 -16 11 -24 20 -9 23 -8 22 11 -1 25 -17 31 -33
13z"/>
<path d="M850 2271 c0 -5 6 -12 13 -15 6 -3 -3 -3 -20 0 -24 4 -33 2 -33 -8 0
-11 9 -13 31 -10 22 3 30 1 25 -7 -4 -6 0 -14 8 -17 9 -3 14 -10 11 -14 -3 -5
-1 -11 5 -15 5 -3 10 3 10 14 0 13 -7 21 -17 22 -14 0 -13 2 5 9 28 12 29 20
2 13 -12 -3 -20 -2 -19 3 3 19 -1 34 -11 34 -5 0 -10 -4 -10 -9z"/>
<path d="M816 2203 c-16 -16 -25 -34 -23 -45 3 -10 1 -18 -4 -18 -5 0 -9 7 -9
15 0 8 -4 15 -10 15 -5 0 -10 -4 -10 -9 0 -6 5 -13 10 -16 6 -3 10 -11 10 -16
0 -6 -4 -7 -10 -4 -5 3 -10 2 -10 -4 0 -11 39 -25 47 -17 4 3 -2 6 -12 6 -15
0 -16 2 -4 17 8 9 13 24 11 35 -3 16 0 17 22 7 14 -7 22 -17 19 -23 -4 -6 1
-5 10 3 9 7 24 11 32 7 8 -3 15 -2 15 2 0 16 -24 32 -47 32 -24 0 -31 15 -10
23 6 2 9 7 6 11 -3 3 -18 -6 -33 -21z"/>
<path d="M1202 2209 c-7 -12 -16 -18 -19 -15 -4 3 -12 1 -19 -5 -8 -6 -22 -8
-31 -5 -15 6 -16 5 -5 -6 9 -9 19 -10 41 -1 17 6 34 7 40 2 8 -6 8 -5 1 3 -7
8 -4 18 7 30 9 10 12 18 7 18 -5 0 -15 -9 -22 -21z"/>
<path d="M468 2200 c-14 -10 -29 -16 -33 -12 -5 4 -5 1 -1 -5 4 -7 2 -13 -4
-13 -11 0 -3 -49 11 -64 9 -10 4 27 -5 43 -3 4 6 18 21 31 20 17 27 19 34 9 6
-10 8 -7 6 9 -2 27 1 26 -29 2z"/>
<path d="M730 2185 c0 -11 -5 -15 -15 -11 -9 3 -15 0 -15 -9 0 -21 -28 -18
-42 4 -11 17 -14 18 -35 4 -13 -8 -23 -12 -23 -8 0 5 -8 1 -18 -8 -10 -10 -23
-14 -27 -10 -5 5 -4 1 3 -9 7 -9 9 -18 5 -20 -10 -6 16 2 36 10 9 3 12 1 7 -6
-5 -8 4 -12 29 -12 33 0 35 1 24 22 -10 19 -12 19 -21 5 -7 -14 -12 -15 -23
-4 -12 10 -11 14 2 24 18 14 53 0 53 -21 0 -8 6 -19 14 -25 12 -10 13 -8 9 8
-4 15 -1 21 11 21 10 0 15 4 11 9 -3 5 4 12 15 16 22 7 26 20 10 30 -5 3 -10
-1 -10 -10z"/>
<path d="M930 2177 c0 -5 9 -11 20 -14 23 -6 23 -40 1 -35 -7 1 -10 -2 -6 -8
11 -19 34 9 32 38 -2 21 -7 27 -24 27 -13 0 -23 -4 -23 -8z"/>
<path d="M389 2177 c-5 -26 -4 -34 3 -49 7 -15 4 -18 -14 -18 -19 0 -20 2 -8
10 13 8 12 10 -2 10 -37 0 -13 -33 25 -35 25 -2 31 12 12 32 -13 13 -14 18 -3
24 10 7 10 11 0 21 -6 6 -13 9 -13 5z"/>
<path d="M1115 2160 c3 -6 -1 -13 -9 -16 -9 -3 -16 -10 -16 -15 0 -13 37 -48
44 -42 3 3 -2 12 -12 20 -16 12 -16 14 1 27 21 16 21 22 1 30 -8 3 -12 2 -9
-4z"/>
<path d="M1170 2149 c0 -6 9 -13 20 -16 19 -5 20 -6 3 -19 -16 -12 -14 -13 19
-11 21 1 38 6 38 10 0 5 5 5 11 1 8 -4 8 -9 0 -17 -19 -19 -12 -26 14 -14 14
7 25 20 25 30 0 10 -5 15 -10 12 -6 -4 -7 -11 -4 -17 4 -7 2 -8 -5 -4 -6 4
-10 15 -9 24 2 12 -4 17 -19 17 -12 0 -25 4 -29 8 -11 11 -54 8 -54 -4z"/>
<path d="M1198 1945 c-2 -3 -26 -6 -52 -6 -26 -1 -49 -6 -52 -10 -2 -5 -15 -5
-27 -1 -44 16 -69 8 -87 -26 -11 -20 -20 -28 -23 -20 -3 7 -6 2 -6 -12 0 -27
44 -77 69 -75 42 2 20 -48 -62 -145 -7 -8 -14 -18 -14 -22 -1 -5 -2 -12 -3
-18 0 -5 -8 -7 -16 -4 -8 4 -15 1 -15 -5 0 -6 -23 -34 -51 -63 -32 -32 -49
-58 -46 -68 3 -11 -1 -17 -12 -16 -9 0 -15 -5 -13 -11 1 -7 -5 -13 -13 -13
-15 0 -41 -38 -37 -53 1 -5 -2 -6 -8 -2 -6 4 -17 1 -25 -5 -30 -24 -34 1 -32
179 1 117 -1 177 -8 174 -5 -2 -3 1 6 9 9 7 19 23 23 35 5 14 13 19 25 16 10
-3 22 1 26 8 6 8 4 10 -6 4 -8 -5 -10 -4 -6 0 12 14 37 15 37 2 0 -7 5 -4 11
6 6 9 14 15 19 12 12 -7 30 28 30 58 0 14 -7 30 -15 37 -8 7 -15 9 -15 6 0 -4
-7 0 -15 8 -13 13 -40 15 -148 13 -73 -2 -138 -7 -146 -11 -10 -6 -12 -5 -7 2
9 15 -26 16 -72 3 -20 -6 -30 -6 -27 0 4 5 -1 9 -10 9 -9 0 -13 -5 -9 -11 5
-8 1 -8 -13 0 -16 8 -25 6 -42 -10 -11 -11 -21 -16 -22 -12 -1 4 -4 -3 -8 -17
-13 -41 22 -90 64 -90 13 0 25 -5 27 -10 2 -6 13 -12 26 -13 12 0 22 -4 23 -7
0 -3 2 -14 4 -25 3 -11 7 -53 10 -94 3 -41 6 -77 7 -80 0 -3 -1 -10 -2 -16 -8
-33 -4 -205 5 -205 6 0 5 -4 -2 -8 -12 -8 -12 -24 2 -55 4 -11 3 -23 -4 -30
-12 -12 -16 -139 -4 -151 12 -12 14 -48 2 -40 -9 5 -10 -14 -3 -72 10 -96 11
-168 2 -211 -3 -18 -2 -35 2 -38 5 -3 7 -12 4 -20 -4 -8 -10 -13 -14 -10 -4 3
-7 -3 -6 -13 1 -12 -8 -18 -28 -20 -16 -2 -40 -11 -53 -19 -12 -8 -23 -12 -23
-8 0 17 -27 -23 -32 -48 -8 -41 9 -43 22 -3 6 21 18 35 28 36 9 0 36 2 59 3
22 1 39 5 37 9 -3 4 2 18 11 32 19 29 24 84 25 269 0 90 4 136 10 132 6 -3 10
-1 10 4 0 6 -4 11 -10 11 -6 0 -10 118 -10 318 0 174 -4 331 -8 347 -10 36
-60 65 -114 65 -37 0 -38 1 -38 34 l0 35 244 0 244 0 -3 -32 c-2 -30 -5 -32
-46 -35 -104 -9 -110 -27 -111 -308 -1 -124 -5 -227 -10 -230 -5 -3 -6 -10 -2
-15 13 -22 99 47 205 166 109 122 133 152 205 247 67 90 72 99 61 122 -7 14
-13 22 -15 18 -1 -4 -22 -6 -47 -4 -44 4 -45 5 -45 38 l0 33 225 1 225 0 0
-34 c0 -33 0 -33 -55 -40 -97 -11 -139 -39 -276 -177 -103 -105 -128 -126
-139 -116 -12 10 -12 9 -2 -4 10 -14 5 -24 -31 -65 -24 -27 -56 -63 -72 -81
-15 -18 -32 -30 -37 -27 -6 4 -4 -4 3 -17 7 -13 12 -27 11 -31 -1 -5 3 -8 9
-8 5 0 7 -4 4 -10 -3 -5 1 -10 10 -10 12 0 15 -5 11 -17 -4 -10 -4 -14 0 -11
9 9 18 -2 92 -102 34 -47 73 -98 87 -114 17 -21 23 -38 20 -55 -4 -20 -3 -21
3 -7 7 16 11 14 37 -20 16 -22 35 -45 42 -52 7 -8 10 -18 7 -24 -4 -6 -3 -8 3
-5 13 8 45 -31 37 -45 -4 -6 -3 -8 4 -4 6 3 20 -7 32 -24 17 -24 18 -30 7 -30
-9 0 -18 5 -20 10 -3 6 -4 5 -3 -2 2 -7 13 -13 26 -13 25 -1 71 -51 63 -71 -2
-6 0 -15 6 -19 6 -3 9 0 5 8 -3 8 2 17 10 20 9 4 16 14 16 24 0 15 -2 16 -10
3 -9 -13 -14 -8 -11 12 0 3 -16 21 -37 39 -20 18 -38 36 -38 41 -1 4 -2 14 -3
21 -1 8 -4 7 -11 -3 -5 -8 -10 -10 -10 -4 0 18 -71 119 -81 117 -5 -2 -8 0 -7
5 3 15 -15 42 -29 42 -8 0 -11 5 -8 10 3 5 1 10 -5 10 -6 0 -8 5 -5 10 3 5 -2
10 -12 10 -15 0 -16 2 -3 10 13 9 13 10 0 11 -8 1 -18 1 -22 0 -4 0 -5 5 -3
12 3 6 -6 24 -20 39 -14 15 -25 31 -25 37 0 5 -10 18 -23 28 -13 10 -22 24
-19 31 2 7 -2 11 -9 10 -7 -2 -14 2 -14 7 -1 6 -5 18 -10 28 -6 15 -10 16 -16
5 -7 -10 -9 -9 -9 3 0 20 -26 71 -33 67 -3 -2 -9 1 -14 6 -5 6 -2 6 6 1 11 -6
13 -4 8 9 -4 9 -3 15 1 12 10 -6 43 30 35 38 -4 3 -1 6 6 6 7 0 9 5 6 10 -3 6
-1 10 4 10 15 0 61 42 56 50 -3 4 3 14 12 21 14 12 16 12 8 -1 -5 -9 -4 -11 1
-5 48 53 67 77 55 70 -10 -6 -12 -4 -7 4 5 7 15 10 24 6 9 -3 14 -3 10 0 -3 4
10 22 28 41 19 19 32 39 29 44 -3 5 0 7 8 5 7 -3 22 5 33 17 15 18 15 20 2 9
-10 -7 -18 -11 -18 -8 0 12 74 56 83 50 6 -3 7 -1 4 4 -4 6 0 16 8 23 8 7 15
9 15 6 0 -4 10 0 22 8 12 9 35 16 50 16 16 0 28 5 28 10 0 6 11 10 25 10 14 0
25 5 25 11 0 5 4 8 8 5 13 -8 34 38 30 64 -4 31 -57 62 -77 46 -11 -8 -13 -8
-8 0 5 8 -4 11 -26 10 -17 -1 -47 1 -64 5 -25 5 -33 3 -33 -7 0 -12 -4 -12
-29 0 -16 9 -30 13 -33 11z"/>
<path d="M1160 1865 c-7 -8 -9 -15 -4 -15 4 0 -1 -6 -12 -14 -10 -8 -16 -17
-13 -21 9 -9 40 25 34 36 -4 5 -2 9 4 9 5 0 13 -5 16 -10 7 -12 25 -4 25 11 0
6 -5 7 -11 3 -6 -3 -15 -1 -19 5 -5 9 -10 8 -20 -4z"/>
<path d="M1237 1873 c-4 -3 -7 -11 -7 -17 0 -6 4 -5 9 3 5 7 14 10 21 6 9 -6
9 -9 -1 -16 -18 -11 -4 -23 17 -15 15 6 15 8 -1 26 -19 21 -28 24 -38 13z"/>
<path d="M622 1858 c3 -14 -3 -14 -37 -3 -12 4 -7 -2 10 -14 22 -15 29 -28 28
-48 -2 -28 -2 -28 5 -3 5 14 13 25 19 25 6 0 14 3 18 7 4 3 -1 5 -12 4 -26 -5
-36 4 -23 19 8 9 8 15 0 20 -6 4 -9 1 -8 -7z"/>
<path d="M484 1838 c-6 -21 -7 -21 -20 -3 -8 10 -14 14 -14 9 0 -17 22 -33 36
-27 8 3 14 0 14 -6 0 -6 5 -11 12 -11 7 0 6 6 -4 18 -9 9 -13 23 -11 30 3 6 2
12 0 12 -3 0 -9 -10 -13 -22z"/>
<path d="M540 1789 c0 -5 -5 -7 -12 -3 -7 4 -8 3 -4 -4 12 -20 -4 -34 -22 -20
-15 12 -16 11 -4 -4 8 -9 11 -22 7 -28 -3 -5 -2 -10 2 -10 5 0 14 9 21 20 7
12 18 17 29 14 17 -5 16 -5 0 6 -14 9 -16 15 -6 26 8 10 8 14 0 14 -6 0 -11
-5 -11 -11z"/>
<path d="M596 1735 c4 -8 2 -15 -4 -15 -6 0 -13 6 -15 13 -3 7 -6 7 -6 1 -1
-15 37 -49 46 -41 3 4 1 7 -6 7 -7 0 -9 9 -5 25 4 15 2 25 -5 25 -6 0 -8 -7
-5 -15z"/>
<path d="M526 1711 c-9 -13 4 -42 16 -35 5 3 4 11 -3 20 -7 8 -7 14 -1 14 15
0 33 -26 24 -35 -4 -5 -1 -5 5 -1 10 5 10 11 0 26 -13 21 -32 26 -41 11z"/>
<path d="M595 1668 c-4 -10 -14 -14 -26 -11 -14 4 -19 0 -19 -16 0 -11 5 -21
11 -21 5 0 7 5 4 10 -3 6 0 10 8 10 17 0 43 28 34 37 -4 3 -9 -1 -12 -9z"/>
<path d="M586 1619 c-10 -10 -23 -16 -29 -12 -6 4 -7 1 -3 -6 5 -7 10 -10 13
-7 3 3 15 1 27 -5 20 -9 20 -9 3 5 -18 14 -18 15 2 18 12 2 18 7 13 14 -5 8
-13 5 -26 -7z"/>
<path d="M545 1572 c-10 -11 -4 -21 9 -16 22 8 30 -28 9 -44 -16 -13 -16 -13
7 -7 14 4 30 12 35 18 7 7 6 8 -1 4 -16 -9 -25 18 -11 32 9 9 8 10 -7 5 -12
-5 -17 -4 -13 3 6 10 -19 14 -28 5z"/>
<path d="M512 1508 c-7 -7 -12 -21 -12 -32 1 -19 1 -20 11 -3 6 9 14 15 19 12
4 -3 6 4 3 15 -6 24 -6 23 -21 8z"/>
<path d="M566 1462 c-2 -4 -1 -14 5 -22 6 -11 9 -12 9 -2 0 9 7 11 19 7 11 -3
22 -1 26 4 3 6 0 8 -8 5 -8 -3 -18 -1 -22 5 -7 13 -22 14 -29 3z"/>
<path d="M555 1405 c17 -14 37 -24 45 -24 10 1 9 3 -3 6 -15 4 -16 7 -5 20 11
14 10 15 -15 9 -19 -4 -26 -3 -22 4 3 5 -2 10 -12 10 -14 -1 -12 -6 12 -25z"/>
<path d="M545 1371 c-3 -5 5 -11 17 -13 12 -2 23 -9 26 -17 3 -8 0 -11 -5 -8
-5 3 -15 1 -23 -4 -11 -7 -8 -8 10 -6 14 3 31 -3 38 -12 11 -14 12 -13 3 5 -6
12 -7 24 -4 28 3 3 0 6 -8 6 -12 0 -11 2 1 11 13 9 13 10 0 6 -8 -2 -23 0 -32
4 -10 5 -19 5 -23 0z"/>
<path d="M754 1332 c4 -7 2 -12 -3 -12 -6 0 -3 -9 6 -20 15 -17 19 -18 33 -5
9 8 20 12 23 8 4 -3 7 3 7 15 0 15 -6 22 -17 21 -11 0 -13 -3 -6 -6 10 -3 10
-8 -1 -19 -18 -18 -26 -18 -26 0 0 8 -5 18 -12 22 -7 4 -8 3 -4 -4z"/>
<path d="M780 1270 c-9 -6 -11 -10 -3 -10 7 0 10 -7 6 -16 -6 -16 -7 -16 -18
0 -15 20 -22 20 -22 1 0 -8 4 -12 8 -9 4 2 10 0 14 -6 3 -5 2 -10 -3 -10 -5 0
-9 -12 -9 -27 0 -35 36 -74 66 -71 13 2 26 -3 29 -11 3 -8 0 -11 -7 -7 -6 4
-11 3 -11 -3 0 -5 4 -13 10 -16 9 -5 14 9 22 58 3 17 4 17 23 2 20 -17 20 -17
0 -10 -16 5 -18 4 -7 -6 10 -11 15 -10 29 4 16 16 16 17 0 17 -9 0 -16 3 -16
8 1 4 1 14 0 22 -1 13 -2 13 -11 0 -5 -8 -10 -11 -10 -7 0 4 -9 3 -20 -3 -14
-8 -20 -8 -20 0 0 6 10 15 23 20 13 5 16 9 6 9 -8 1 -21 -5 -28 -11 -10 -11
-11 -7 -5 16 6 27 5 28 -8 15 -17 -15 -18 -30 -4 -41 11 -7 -11 -38 -26 -38
-6 0 -6 6 1 14 9 11 9 16 0 22 -8 5 -9 3 -4 -6 5 -8 3 -11 -6 -8 -19 7 -13 44
10 69 11 12 17 27 14 35 -6 16 -4 16 -23 4z"/>
<path d="M587 1243 c5 -12 2 -15 -9 -11 -12 5 -15 -1 -14 -28 1 -41 8 -43 31
-6 10 15 12 21 4 15 -7 -7 -18 -13 -23 -13 -6 1 -1 9 11 19 12 10 19 22 15 26
-4 5 1 5 11 2 11 -4 16 -3 12 3 -3 6 -15 10 -25 10 -14 0 -18 -5 -13 -17z"/>
<path d="M636 1050 c2 -137 0 -170 -11 -170 -8 0 -16 -4 -19 -9 -3 -5 2 -8 12
-7 14 1 17 -9 20 -67 1 -38 7 -77 12 -88 6 -11 7 -19 1 -19 -5 0 -11 7 -15 15
-3 8 -13 15 -22 15 -10 0 -14 -5 -11 -15 8 -20 -8 -28 -23 -10 -7 8 -8 15 -3
15 5 0 7 15 5 34 -3 26 1 37 17 48 18 13 19 17 8 27 -8 6 -18 7 -23 3 -4 -4
-2 2 6 12 10 13 10 17 3 12 -17 -9 -17 16 -1 32 9 9 9 12 -1 12 -7 0 -15 -9
-18 -19 -3 -12 -11 -17 -19 -14 -8 3 -11 9 -8 14 3 5 -3 6 -12 2 -12 -4 -15
-3 -10 5 4 7 2 12 -4 12 -7 0 -9 -8 -5 -22 6 -18 4 -20 -11 -14 -15 6 -17 5
-6 -5 18 -19 15 -40 -5 -32 -16 6 -17 5 -3 -13 8 -10 21 -23 28 -27 6 -4 12
-17 12 -27 0 -11 5 -20 11 -20 5 0 7 5 4 10 -3 6 -2 10 3 10 16 0 7 45 -10 52
-9 4 -16 16 -15 27 1 24 22 28 34 8 4 -8 17 -18 27 -24 19 -10 19 -11 -1 -21
-14 -8 -19 -19 -17 -44 2 -29 0 -34 -21 -36 -13 -1 -26 5 -29 13 -7 19 -32 19
-40 0 -3 -9 0 -15 10 -15 9 0 12 5 8 13 -4 6 2 3 13 -8 14 -13 16 -22 9 -27
-8 -6 -8 -8 1 -8 6 0 15 5 18 10 3 6 13 10 21 10 8 0 14 -4 14 -10 0 -5 -7
-10 -15 -10 -8 0 -15 -7 -15 -16 0 -13 3 -14 13 -5 8 6 17 8 20 4 4 -3 7 -1 7
6 0 10 7 9 26 -4 14 -9 28 -14 32 -11 3 3 0 6 -7 6 -7 0 -9 5 -5 12 4 7 3 8
-4 4 -7 -4 -12 -2 -12 4 0 15 48 4 70 -15 17 -15 50 -25 95 -28 26 -2 30 -7
33 -33 l3 -31 -221 0 -220 -1 -14 25 c-11 22 -14 23 -19 9 -4 -10 -3 -15 3
-11 6 3 10 2 10 -4 0 -6 -12 -17 -27 -25 l-28 -15 37 3 c27 3 35 0 31 -10 -4
-10 2 -11 26 -4 17 4 36 12 42 16 8 4 9 3 5 -4 -9 -15 -1 -15 25 -2 10 6 19 7
19 2 0 -5 14 -9 30 -9 20 0 26 3 18 9 -7 4 -8 8 -2 8 6 0 13 -3 17 -6 10 -11
107 -10 111 1 3 6 5 4 5 -2 1 -7 6 -13 12 -13 5 0 7 5 4 10 -3 6 -1 10 4 10 6
0 11 -6 11 -12 0 -9 4 -8 10 2 8 12 10 12 10 1 0 -11 3 -11 15 -1 9 7 18 10
22 6 3 -3 0 -6 -8 -6 -11 0 -11 -2 1 -10 19 -12 33 -13 26 -1 -3 4 5 7 19 6
19 -3 26 4 39 36 15 37 15 41 -3 60 -11 12 -24 18 -30 15 -5 -4 -12 -2 -16 4
-4 6 -10 8 -15 5 -10 -6 -62 20 -54 28 3 3 -3 3 -14 0 -25 -6 -25 -2 -23 262
1 156 4 193 17 205 8 8 14 11 13 5 -3 -15 12 -45 23 -45 5 0 6 5 2 12 -5 7 -3
8 5 3 9 -5 9 -11 3 -17 -10 -10 9 -35 71 -100 9 -10 17 -22 17 -28 0 -5 5 -10
10 -10 6 0 10 -7 10 -15 0 -8 7 -15 16 -15 8 0 13 -4 10 -8 -2 -4 4 -19 15
-32 16 -21 18 -22 13 -5 -5 16 -4 17 5 5 6 -8 8 -22 6 -31 -7 -21 49 -74 67
-63 11 6 11 5 0 -8 -10 -13 -10 -17 3 -22 8 -3 15 -13 15 -21 0 -9 5 -13 10
-10 6 3 10 2 10 -4 0 -5 12 -24 28 -42 15 -18 21 -29 13 -25 -10 6 -12 5 -7
-2 4 -7 13 -12 20 -12 7 0 18 -11 24 -25 6 -14 18 -25 26 -25 8 0 18 -5 22
-12 4 -7 3 -8 -4 -4 -7 4 -10 2 -7 -6 3 -7 15 -20 28 -27 27 -17 89 -32 81
-20 -3 5 -1 9 5 9 5 0 12 -4 16 -10 3 -5 15 -6 27 -1 12 4 40 4 62 0 23 -4 43
-4 46 1 3 4 14 4 24 0 24 -8 64 -1 73 13 3 6 1 7 -6 3 -6 -4 -18 -3 -24 3 -8
6 -42 8 -80 6 -64 -4 -67 -3 -64 18 1 12 9 27 17 34 13 10 13 14 1 25 -12 11
-13 10 -8 -4 4 -10 2 -18 -3 -18 -6 0 -10 5 -10 10 0 6 -4 10 -8 10 -4 0 -7
-17 -5 -37 l2 -38 -60 0 c-63 0 -64 1 -54 28 8 19 55 24 55 6 0 -8 4 -8 15 1
8 6 19 9 25 5 5 -3 10 0 10 9 0 10 -9 13 -32 10 -31 -4 -32 -4 -14 11 14 11
16 15 5 15 -11 0 -12 2 -1 9 8 5 12 17 10 27 -3 14 -10 8 -26 -26 -12 -25 -20
-34 -18 -22 6 29 0 24 -23 -20 -10 -18 -22 -32 -26 -31 -3 1 -33 35 -65 75
-56 70 -58 74 -42 93 16 19 16 19 -2 5 -16 -13 -21 -12 -43 14 -13 16 -22 35
-19 43 3 8 2 12 -3 9 -13 -8 -44 31 -35 45 4 7 3 10 -3 6 -6 -4 -29 18 -52 49
-44 59 -47 65 -30 61 6 -1 14 5 16 13 3 9 1 11 -4 5 -17 -22 -58 -2 -48 23 3
9 3 13 -1 9 -4 -3 -15 3 -26 15 -14 17 -16 24 -6 31 10 6 9 7 -3 4 -11 -4 -27
8 -47 36 -47 65 -71 87 -95 87 l-23 0 2 -170z"/>
<path d="M520 1197 c0 -9 -5 -17 -11 -17 -5 0 -7 -5 -3 -12 5 -8 1 -9 -12 -4
-15 6 -16 5 -7 -5 9 -9 10 -16 1 -26 -8 -10 -8 -12 4 -8 16 6 43 73 34 82 -3
4 -6 -1 -6 -10z"/>
<path d="M564 1140 c3 -14 6 -29 6 -33 0 -5 5 -5 10 -2 6 3 10 -4 9 -17 0 -13
-3 -17 -6 -11 -3 10 -8 9 -20 -2 -20 -21 -33 -19 -28 5 3 17 1 18 -14 10 -31
-16 -45 -75 -15 -63 11 4 12 8 4 13 -9 5 -9 13 -2 25 9 17 10 17 16 -3 7 -21
26 -31 26 -13 0 5 14 11 30 15 l30 6 -15 36 c-13 33 -13 35 0 24 9 -7 18 -10
21 -7 3 3 -4 10 -15 17 -12 6 -21 7 -21 3 0 -4 -5 -1 -11 7 -8 12 -9 10 -5
-10z"/>
<path d="M956 1111 c-4 -6 -13 -8 -21 -4 -8 3 -15 0 -15 -6 0 -6 5 -11 10 -11
6 0 9 -5 8 -12 -2 -6 5 -14 15 -16 11 -2 17 3 17 13 0 9 -4 13 -10 10 -5 -3
-10 -2 -10 4 0 5 6 11 13 14 6 2 9 7 6 11 -4 4 -10 3 -13 -3z"/>
<path d="M878 1101 c11 -7 11 -9 -2 -14 -13 -5 -14 -11 -4 -32 11 -25 19 -29
47 -26 7 2 10 -2 7 -8 -10 -15 13 -24 29 -11 10 9 16 7 25 -7 11 -17 11 -17 6
0 -3 10 2 29 10 43 9 13 14 27 10 31 -3 3 -6 1 -6 -6 0 -7 -4 -10 -9 -7 -5 3
-8 -2 -7 -12 0 -10 -6 -16 -16 -16 -10 1 -18 -2 -18 -8 0 -27 -37 27 -38 56 0
10 -23 26 -37 26 -5 0 -4 -4 3 -9z"/>
<path d="M590 1035 c-1 -11 -1 -33 0 -49 1 -18 -2 -26 -9 -22 -6 4 -11 3 -11
-3 0 -5 4 -11 10 -13 6 -2 5 -9 -1 -18 -8 -11 -12 -12 -16 -2 -2 6 -12 12 -21
12 -15 -1 -16 -2 -1 -13 9 -7 14 -18 12 -24 -3 -7 0 -13 7 -13 6 0 8 5 4 11
-5 8 1 10 20 7 27 -5 36 6 14 16 -9 4 -10 8 -2 11 6 3 9 21 7 41 -2 23 0 33 7
29 5 -3 10 -1 10 4 0 6 -4 11 -9 11 -5 0 -12 8 -14 18 -4 15 -5 14 -7 -3z"/>
<path d="M1013 1025 c1 -11 -2 -25 -6 -32 -8 -12 30 -30 40 -19 4 3 -1 6 -10
6 -14 0 -15 5 -7 26 6 14 6 23 1 20 -5 -4 -12 0 -15 6 -3 7 -5 4 -3 -7z"/>
<path d="M542 990 c-7 -11 -19 -20 -28 -20 -9 0 -12 -5 -8 -12 5 -8 2 -9 -9
-5 -11 4 -17 1 -17 -8 0 -9 6 -12 18 -8 32 12 69 42 69 57 0 22 -10 20 -25 -4z"/>
<path d="M956 984 c-3 -9 -2 -12 4 -9 6 3 13 -2 17 -12 3 -10 16 -29 29 -43
13 -14 24 -40 26 -58 2 -33 11 -41 24 -21 3 6 2 14 -3 18 -6 3 -13 20 -16 36
-3 17 -4 25 -1 19 2 -6 15 -9 27 -7 17 3 27 -2 35 -19 7 -13 10 -15 8 -5 -3 9
-1 17 4 17 6 0 10 7 10 16 0 13 -3 14 -13 5 -8 -6 -17 -8 -21 -4 -3 4 -21 8
-39 9 -44 2 -47 3 -47 13 0 6 9 8 20 6 11 -2 18 0 15 5 -3 5 -14 7 -25 5 -11
-2 -20 1 -20 6 0 6 -6 17 -14 24 -12 12 -15 12 -20 -1z"/>
<path d="M1125 881 c3 -6 -3 -14 -12 -20 -10 -6 -13 -11 -6 -11 7 0 10 -7 6
-17 -5 -13 -2 -15 11 -10 10 4 20 7 24 7 3 0 -3 7 -14 15 -10 8 -14 14 -9 13
6 -2 11 0 13 5 5 16 2 27 -9 27 -5 0 -8 -4 -4 -9z"/>
<path d="M1066 844 c-8 -22 -8 -26 4 -19 6 3 10 2 10 -3 0 -5 7 -9 16 -9 14 0
15 2 2 11 -8 6 -13 17 -11 24 7 18 -14 15 -21 -4z"/>
<path d="M1025 810 c-9 -14 4 -32 18 -23 6 4 28 6 48 4 20 -1 40 2 43 7 3 6
-10 9 -34 7 -22 -1 -43 1 -46 6 -7 12 -21 11 -29 -1z"/>
<path d="M1094 766 c5 -13 2 -17 -9 -13 -8 4 -17 1 -21 -5 -4 -7 -3 -8 4 -4 7
4 12 1 12 -8 0 -9 5 -16 10 -16 6 0 10 7 10 15 0 8 5 15 10 15 13 0 13 -6 0
-31 -7 -13 -7 -19 0 -19 5 0 10 4 10 9 0 5 7 17 16 25 14 15 14 16 0 16 -9 0
-16 4 -16 9 0 4 11 6 25 3 14 -2 22 -8 19 -13 -7 -12 -14 -69 -9 -69 3 0 11
13 19 28 10 19 11 33 5 45 -8 13 -6 17 6 17 8 0 15 -4 15 -9 0 -5 7 -16 15
-25 15 -14 11 -46 -6 -46 -4 0 -5 8 -2 18 6 15 5 15 -10 3 -9 -7 -15 -17 -12
-21 3 -5 0 -10 -5 -12 -6 -2 -13 -19 -16 -38 -4 -28 -2 -32 6 -17 6 9 9 21 6
25 -3 5 8 16 24 25 15 9 33 30 38 47 10 26 9 30 -7 30 -11 0 -21 6 -24 14 -7
17 -84 20 -93 4 -4 -6 -10 -5 -16 3 -7 11 -8 9 -4 -5z"/>
<path d="M1345 701 c-3 -6 11 -21 32 -35 21 -15 31 -26 24 -26 -8 0 -20 -8
-28 -17 -12 -15 -14 -15 -10 -2 3 9 1 22 -4 30 -7 11 -9 9 -9 -8 0 -12 -3 -28
-6 -36 -4 -12 0 -14 15 -10 12 3 21 10 21 15 0 5 5 6 12 2 7 -4 8 -3 4 4 -4 7
-1 12 9 12 8 0 19 -10 24 -22 6 -16 10 -18 16 -8 5 8 2 16 -9 22 -9 5 -16 14
-16 19 0 6 6 7 13 2 6 -4 19 -8 27 -8 10 0 14 -8 12 -27 -3 -27 11 -38 23 -18
3 6 0 10 -7 10 -8 0 -9 3 -3 8 18 13 15 31 -5 42 -11 6 -24 8 -29 6 -5 -3 -11
1 -15 9 -3 8 -14 15 -24 15 -11 0 -25 7 -32 15 -14 17 -26 19 -35 6z"/>
<path d="M485 660 c-4 -6 -3 -16 1 -22 6 -10 5 -10 -7 -1 -12 10 -18 9 -32 -7
-9 -11 -12 -22 -8 -25 5 -3 11 2 15 10 7 18 47 14 55 -6 8 -20 56 -22 71 -4
16 19 25 19 44 -1 10 -10 16 -11 16 -3 0 9 4 8 15 -1 12 -10 15 -10 15 1 0 11
3 11 11 -1 9 -13 10 -13 6 0 -2 8 -12 13 -22 12 -16 -3 -17 -2 -5 13 10 12 11
18 1 28 -10 9 -11 8 -5 -7 5 -14 4 -17 -5 -12 -6 4 -11 4 -10 -1 4 -21 -3 -22
-31 -8 -31 16 -42 32 -14 21 8 -3 12 -2 9 4 -9 14 -41 7 -65 -15 -16 -15 -23
-16 -33 -6 -9 9 -9 14 1 20 11 7 11 9 -2 14 -8 3 -18 2 -21 -3z"/>
<path d="M870 428 c0 -5 -4 -7 -9 -4 -4 3 -17 -1 -27 -8 -10 -8 -23 -11 -29
-6 -5 4 -19 3 -30 -1 -18 -9 -18 -9 3 -5 12 2 20 0 16 -5 -3 -5 -16 -9 -30 -9
-14 0 -22 4 -19 10 9 15 -8 12 -34 -7 -14 -9 -21 -11 -17 -4 6 9 0 10 -21 5
-15 -4 -54 -8 -85 -8 -32 -1 -58 -5 -58 -9 0 -5 -19 -5 -42 -2 -44 7 -97 -7
-110 -28 -5 -8 -8 -7 -8 5 0 9 -10 24 -21 32 -28 19 -66 3 -64 -27 1 -12 -2
-25 -8 -28 -5 -4 -5 -14 2 -27 9 -17 8 -19 -9 -15 -11 3 -20 10 -20 17 0 7 -4
6 -9 -2 -7 -11 -11 -11 -23 2 -33 32 -188 -13 -188 -56 0 -14 15 -9 42 17 29
27 92 34 127 15 10 -5 44 -12 77 -15 32 -4 62 -9 67 -12 4 -2 6 0 5 6 -2 5 6
17 17 26 20 16 20 16 -2 5 -33 -16 -63 3 -63 39 0 29 21 57 33 44 4 -3 7 -17
7 -31 0 -21 -2 -23 -16 -11 -14 12 -16 11 -13 -6 6 -28 43 -30 78 -6 34 25 98
41 87 23 -9 -15 -6 -15 39 3 22 10 66 16 113 16 90 -1 125 2 170 13 22 5 38 4
48 -5 13 -10 14 -9 10 14 -4 26 15 44 35 31 13 -8 11 -54 -2 -54 -6 0 -9 9 -6
20 3 11 1 20 -5 20 -5 0 -8 -12 -6 -27 3 -24 8 -28 33 -28 25 0 30 4 33 28 2
15 -1 27 -6 27 -6 0 -8 -9 -5 -20 3 -11 0 -20 -6 -20 -12 0 -14 20 -5 44 13
33 40 13 36 -25 -1 -4 24 -6 56 -4 31 1 68 -3 82 -10 14 -6 44 -10 67 -8 23 2
44 -1 48 -7 3 -5 12 -10 18 -10 7 0 6 4 -3 10 -12 8 -9 10 11 10 31 0 96 -25
83 -32 -5 -3 -3 -3 4 -2 18 5 43 -7 36 -17 -7 -12 -51 -4 -81 17 -14 9 -23 12
-19 6 11 -19 -27 -23 -48 -5 -12 10 -8 4 7 -14 16 -17 30 -35 30 -40 1 -4 5
-7 9 -6 13 5 9 -15 -4 -23 -7 -5 -29 11 -55 41 -31 33 -40 50 -32 56 7 4 1 6
-14 6 l-26 -2 29 -30 c16 -16 41 -57 56 -90 26 -56 39 -74 56 -75 4 0 5 6 2
14 -3 8 0 17 7 22 9 5 11 -1 6 -24 -4 -19 -2 -32 3 -32 6 0 10 15 10 34 0 19
5 38 12 42 7 5 8 3 3 -7 -7 -12 -6 -12 7 -1 10 8 26 10 42 6 14 -3 26 -2 26 2
0 5 14 10 30 11 17 1 30 -2 30 -7 0 -6 7 -10 15 -10 21 0 19 8 -12 53 -15 21
-46 50 -70 64 -24 14 -43 27 -43 29 0 13 53 0 85 -22 46 -31 79 -29 82 6 1 14
0 18 -3 8 -8 -26 -24 -22 -24 6 0 33 28 42 39 13 5 -12 6 -28 4 -34 -3 -7 0
-13 6 -13 13 0 11 50 -2 68 -13 17 -44 15 -55 -4 -8 -14 -16 -15 -58 -6 -27 5
-60 10 -74 10 -53 2 -129 10 -139 17 -6 3 -11 2 -11 -4 0 -7 -8 -7 -24 -1 -17
6 -26 5 -29 -3 -2 -8 -14 -6 -40 6 -20 10 -49 17 -64 16 -39 -1 -63 5 -71 18
-9 14 -82 15 -82 1z m430 -134 c13 -11 20 -11 42 0 24 13 28 12 48 -9 20 -22
21 -25 7 -39 -22 -22 -31 -20 -47 9 -7 14 -17 25 -22 25 -11 0 -10 -18 2 -25
15 -9 2 -25 -21 -25 -17 0 -24 11 -20 33 1 5 -3 6 -8 3 -5 -3 -16 5 -25 18
-11 18 -12 26 -3 29 13 5 25 0 47 -19z m-27 -70 c3 -4 2 -16 -4 -26 -13 -24
-33 -10 -23 15 6 18 16 21 27 11z"/>
<path d="M1065 354 c11 -8 19 -20 17 -25 -1 -6 2 -8 8 -4 10 6 52 -37 50 -51
-1 -3 6 -11 16 -18 11 -8 14 -18 9 -26 -5 -8 -4 -11 2 -7 6 4 16 -7 22 -25 9
-26 8 -35 -4 -47 -13 -13 -16 -13 -29 4 -8 11 -12 23 -10 27 8 13 -11 9 -24
-4 -10 -10 -15 -10 -23 2 -5 8 -8 22 -5 31 2 12 -2 15 -15 12 -10 -3 -16 -9
-13 -14 3 -5 -1 -6 -9 -3 -8 3 -17 25 -21 50 -8 63 -22 84 -54 84 -21 0 -24 2
-12 10 9 6 10 10 3 10 -17 0 -25 -17 -38 -75 -9 -38 -16 -51 -32 -53 -18 -3
-21 3 -25 36 -3 37 -2 39 18 31 16 -5 24 -4 27 5 4 9 -1 12 -13 9 -11 -3 -26
3 -35 14 -21 25 -61 19 -80 -11 -12 -18 -21 -53 -24 -100 -1 -4 -10 -6 -22 -3
-15 4 -22 -1 -29 -19 -8 -21 -13 -23 -29 -15 -15 9 -20 7 -24 -9 -3 -14 -14
-20 -31 -20 -27 0 -31 7 -20 34 3 9 11 13 17 9 6 -3 7 -1 3 5 -13 21 56 125
99 150 11 6 14 12 8 12 -26 0 -90 -71 -122 -135 -27 -57 -30 -69 -19 -83 11
-15 11 -15 -3 -5 -10 9 -19 9 -26 2 -19 -19 -43 1 -43 36 0 39 26 67 37 40 4
-11 0 -22 -10 -30 -17 -12 -8 -39 9 -27 6 4 22 32 36 62 14 31 40 74 58 95 18
22 7 14 -24 -18 -37 -38 -63 -57 -72 -53 -12 4 -12 10 -4 26 6 11 14 20 18 20
4 0 13 9 20 21 12 19 11 19 -7 10 -11 -6 -23 -16 -26 -21 -11 -18 -23 -11 -18
10 4 14 0 20 -10 20 -18 0 -49 -39 -41 -52 9 -14 26 -9 21 6 -3 8 2 20 10 28
14 11 16 11 11 -3 -4 -9 -2 -21 3 -26 6 -6 1 -18 -11 -31 -23 -24 -45 -28 -56
-10 -5 8 -2 9 9 5 10 -4 17 -1 17 6 -1 16 -30 54 -30 38 0 -7 -5 -9 -11 -5 -6
3 -9 15 -6 25 7 27 1 24 -54 -28 -31 -30 -49 -55 -49 -70 0 -12 -5 -23 -10
-23 -6 0 -9 3 -9 8 4 26 -2 31 -26 22 -19 -7 -44 -3 -105 17 -87 29 -118 25
-140 -17 -11 -21 -11 -21 15 -4 24 15 88 27 80 14 -2 -3 3 -11 11 -18 12 -11
14 -10 14 5 0 15 1 15 13 -2 8 -10 19 -15 25 -11 7 4 12 2 12 -4 0 -7 7 -9 16
-6 8 3 12 2 9 -4 -10 -17 91 -12 105 5 6 8 9 18 7 22 -3 5 3 9 13 10 11 1 23
-3 26 -9 5 -7 2 -8 -6 -3 -8 5 -11 4 -7 -2 3 -5 21 -9 39 -8 18 1 36 -3 40 -9
5 -8 8 -7 8 2 0 6 5 12 12 12 6 0 8 -3 5 -7 -4 -3 1 -12 11 -19 10 -8 12 -13
5 -14 -18 0 -4 -28 18 -35 11 -4 17 -10 15 -14 -3 -4 4 -8 15 -8 10 -1 19 2
19 7 0 5 10 9 23 8 44 -2 66 2 79 15 7 6 18 12 23 12 6 1 22 7 37 14 25 13 30
11 67 -19 23 -17 41 -27 41 -22 0 6 -5 13 -10 15 -6 3 -5 4 2 3 7 -1 14 -12
16 -23 2 -12 12 -29 22 -38 18 -16 20 -16 48 1 18 10 28 23 25 31 -3 8 -2 13
3 12 25 -4 44 3 44 15 0 8 5 18 10 21 18 11 60 16 60 6 0 -9 60 -37 73 -33 4
1 7 -1 7 -6 0 -4 14 -7 31 -8 20 -1 26 2 17 7 -9 6 -9 9 -1 9 6 0 14 -4 17 -9
10 -15 43 -19 43 -5 0 8 -6 14 -14 14 -7 0 -28 33 -47 73 -32 70 -110 158
-140 157 -6 0 -2 -8 9 -16z m-592 -77 c4 3 7 1 7 -5 0 -6 -4 -13 -10 -17 -5
-3 -6 -13 -3 -21 5 -13 1 -15 -18 -9 -42 13 -51 28 -32 52 16 19 20 20 34 7 8
-8 19 -11 22 -7z m381 7 c16 -43 -6 -86 -35 -68 -5 3 -9 -2 -9 -10 0 -8 9 -20
19 -26 16 -8 23 -6 35 12 18 25 21 17 6 -13 -14 -26 -45 -24 -64 3 -20 28 -20
48 -1 48 8 0 15 7 15 16 0 11 5 14 16 10 10 -4 14 -1 12 6 -8 22 -28 20 -37
-4 -9 -21 -10 -21 -10 -2 -2 37 41 60 53 28z m162 -49 c7 -53 -12 -81 -50 -71
-21 5 -53 53 -42 64 3 2 11 -7 17 -22 26 -56 82 -11 60 48 -11 27 -31 31 -39
8 -2 -7 2 -10 11 -6 17 6 32 -25 18 -39 -5 -5 -17 -7 -25 -4 -22 9 -21 63 1
76 26 14 41 -3 49 -54z m-92 -87 c1 -44 -2 -53 -18 -56 -15 -3 -18 0 -13 17 3
12 1 19 -4 15 -13 -8 -11 38 4 69 17 36 30 18 31 -45z"/>
<path d="M736 320 c-22 -25 -25 -34 -16 -50 6 -11 8 -26 4 -33 -5 -8 -2 -8 9
1 15 12 15 16 2 29 -16 15 -12 33 7 33 5 0 7 -8 4 -17 -5 -15 -4 -15 9 1 8 11
15 25 15 30 0 6 -5 4 -10 -4 -9 -13 -10 -13 -10 1 0 8 5 20 12 27 7 7 10 12 7
12 -3 0 -18 -14 -33 -30z"/>
<path d="M1051 316 c-8 -10 -9 -16 -1 -21 6 -3 8 -10 5 -15 -3 -5 -1 -11 5
-15 6 -4 8 -11 5 -16 -4 -5 -2 -9 3 -9 9 0 7 78 -2 87 -2 2 -9 -3 -15 -11z"/>
<path d="M1630 318 c0 -5 -6 -8 -12 -5 -7 2 -24 0 -38 -6 -24 -10 -71 -17
-117 -18 -37 -2 -16 -17 32 -25 31 -4 61 -1 94 10 61 20 110 20 135 1 10 -8
23 -12 28 -9 5 3 8 2 7 -3 -4 -23 2 -36 11 -27 6 6 8 17 5 25 -7 19 -57 49
-82 49 -14 0 -15 2 -4 9 10 6 2 9 -23 9 -20 0 -36 -4 -36 -10z"/>
<path d="M1650 251 c0 -19 -136 -37 -155 -21 -12 10 -15 10 -15 -3 0 -8 -3
-24 -7 -34 -6 -17 -6 -17 14 0 16 14 23 15 29 6 5 -8 3 -10 -6 -4 -9 5 -11 4
-6 -3 9 -15 62 -16 71 -2 4 6 -1 7 -12 4 -15 -5 -15 -4 -3 4 8 6 17 9 21 6 4
-2 20 3 35 11 34 17 60 19 69 5 3 -5 23 -10 43 -10 l36 0 -21 21 c-21 22 -93
37 -93 20z"/>
</g>
</svg>
